<svg width="25" height="25" viewBox="0 0 25 25" fill="none" xmlns="http://www.w3.org/2000/svg">
<path d="M12.5 12.5C15.2617 12.5 17.5 10.2617 17.5 7.5C17.5 4.73828 15.2617 2.5 12.5 2.5C9.73828 2.5 7.5 4.73828 7.5 7.5C7.5 10.2617 9.73828 12.5 12.5 12.5ZM16 13.75H15.3477C14.4805 14.1484 13.5156 14.375 12.5 14.375C11.4844 14.375 10.5234 14.1484 9.65234 13.75H9C6.10156 13.75 3.75 16.1016 3.75 19V20.625C3.75 21.6602 4.58984 22.5 5.625 22.5H19.375C20.4102 22.5 21.25 21.6602 21.25 20.625V19C21.25 16.1016 18.8984 13.75 16 13.75Z" fill="#ABABAB"/>
</svg>
